<svg xmlns="http://www.w3.org/2000/svg" width="50" height="50" fill="none"><rect width="50" height="50" fill="#090713" rx="10"/><path fill="#0FF" fill-rule="evenodd" d="M25.204 27.76a8.854 8.854 0 1 0 0-17.707 8.854 8.854 0 0 0 0 17.707Zm0 3.053c6.576 0 11.907-5.33 11.907-11.906C37.111 12.33 31.781 7 25.205 7c-6.576 0-11.907 5.33-11.907 11.907 0 6.575 5.33 11.906 11.906 11.906ZM13.31 31.38a1.526 1.526 0 0 1 1.803-1.187l19.893 4.114a1.526 1.526 0 0 1-.618 2.99l-19.893-4.114a1.527 1.527 0 0 1-1.186-1.804Z" clip-rule="evenodd"/><path fill="#0FF" fill-rule="evenodd" d="M13.61 41.524a1.526 1.526 0 0 1 1.085-1.866l19.638-5.2a1.526 1.526 0 0 1 .78 2.952l-19.636 5.2a1.526 1.526 0 0 1-1.867-1.086ZM25.204 8.526c0-.843.684-1.526 1.527-1.526h8.548a1.526 1.526 0 0 1 0 3.053h-8.548a1.527 1.527 0 0 1-1.527-1.527Z" clip-rule="evenodd"/></svg>
