<svg xmlns="http://www.w3.org/2000/svg" width="25" height="36" fill="none"><path fill="#000" fill-rule="evenodd" d="M12.204 20.76a8.854 8.854 0 1 0 0-17.707 8.854 8.854 0 0 0 0 17.707Zm0 3.053c6.576 0 11.907-5.33 11.907-11.906C24.111 5.33 18.781 0 12.204 0 5.63 0 .298 5.33.298 11.906c0 6.576 5.33 11.907 11.906 11.907ZM.31 24.38a1.527 1.527 0 0 1 1.803-1.187l19.893 4.114a1.526 1.526 0 0 1-.618 2.99L1.495 26.183A1.526 1.526 0 0 1 .309 24.38Z" clip-rule="evenodd"/><path fill="#000" fill-rule="evenodd" d="M.61 34.524a1.526 1.526 0 0 1 1.085-1.866l19.637-5.2a1.526 1.526 0 0 1 .782 2.952l-19.637 5.2A1.526 1.526 0 0 1 .61 34.523ZM12.204 1.526c0-.843.684-1.526 1.527-1.526h8.548a1.526 1.526 0 0 1 0 3.053h-8.548a1.526 1.526 0 0 1-1.527-1.527Z" clip-rule="evenodd"/></svg>
