<svg xmlns="http://www.w3.org/2000/svg" width="45" height="38" fill="none"><path fill="#fff" d="M36.884 12.315c-.478-.156-.96-.3-1.444-.434.08-.31.155-.623.223-.937 1.093-5.051.378-9.12-2.062-10.46-2.337-1.286-6.168.054-10.034 3.257-.38.316-.752.641-1.117.976-.243-.222-.492-.44-.747-.653C17.65.64 13.59-.803 11.153.541c-2.336 1.288-3.03 5.113-2.046 9.9.098.474.209.945.331 1.415-.558.15-1.112.316-1.66.497C3.034 13.928 0 16.399 0 18.96c0 2.647 3.256 5.301 8.203 6.91.401.13.806.25 1.215.362-.133.502-.25 1.01-.353 1.524-.934 4.705-.205 8.44 2.127 9.72 2.408 1.322 6.448-.037 10.386-3.312.312-.26.623-.533.935-.821.394.361.799.712 1.215 1.053 3.813 3.122 7.578 4.384 9.907 3.1 2.406-1.326 3.188-5.339 2.172-10.22a23.45 23.45 0 0 0-.269-1.142c.284-.08.563-.162.835-.247 5.14-1.622 8.489-4.245 8.489-6.925-.002-2.574-3.133-5.06-7.978-6.649ZM24.828 5.117c3.311-2.744 6.407-3.827 7.818-3.053 1.502.825 2.086 4.15 1.142 8.511-.063.285-.13.568-.202.85a47.832 47.832 0 0 0-5.998-.902 43.178 43.178 0 0 0-3.792-4.505c.335-.309.679-.61 1.03-.901h.002ZM13.246 21.15a52.824 52.824 0 0 0 2.68 4.403 42.681 42.681 0 0 1-4.134-.633 39.634 39.634 0 0 1 1.454-3.77Zm0-4.29a38.187 38.187 0 0 1-1.426-3.696 45.174 45.174 0 0 1 4.068-.664 52.29 52.29 0 0 0-1.376 2.151c-.44.727-.863 1.463-1.269 2.209h.003Zm1.018 2.145a50.947 50.947 0 0 1 4.084-6.738 57.112 57.112 0 0 1 8.177 0 54.913 54.913 0 0 1 2.162 3.285 60.619 60.619 0 0 1 1.933 3.427 54.803 54.803 0 0 1-1.928 3.456 60.12 60.12 0 0 1-2.15 3.306c-1.332.089-2.71.138-4.112.138-1.402 0-2.754-.042-4.062-.123a51.265 51.265 0 0 1-4.106-6.75h.002Zm16.086 4.342a55.37 55.37 0 0 0 1.301-2.263 37.917 37.917 0 0 1 1.507 3.757c-1.382.296-2.78.522-4.186.68.475-.716.934-1.44 1.378-2.174Zm1.283-6.487a58.71 58.71 0 0 0-1.291-2.219 52.84 52.84 0 0 0-1.364-2.136 44.24 44.24 0 0 1 4.091.681 37.815 37.815 0 0 1-1.436 3.674ZM22.45 7.322a39.542 39.542 0 0 1 2.64 3.034 58.686 58.686 0 0 0-5.302 0 40.606 40.606 0 0 1 2.662-3.034ZM12.118 2.118c1.5-.827 4.82.355 8.318 3.309.223.189.448.387.672.592a44.116 44.116 0 0 0-3.818 4.501 48.949 48.949 0 0 0-5.987.888 26.286 26.286 0 0 1-.309-1.315c-.845-4.104-.286-7.198 1.124-7.975ZM9.93 24.475c-.374-.1-.743-.21-1.108-.329-2.186-.71-3.993-1.637-5.233-2.646-1.11-.905-1.673-1.808-1.673-2.54 0-1.554 2.435-3.537 6.497-4.882.51-.168 1.025-.322 1.544-.462a42.502 42.502 0 0 0 2.187 5.393 43.258 43.258 0 0 0-2.214 5.466Zm10.386 8.316c-1.741 1.448-3.485 2.475-5.023 2.993-1.38.464-2.48.477-3.145.113-1.415-.777-2.004-3.777-1.201-7.8.095-.473.204-.947.327-1.42 1.993.408 4.013.686 6.046.833a45.005 45.005 0 0 0 3.85 4.528c-.279.26-.564.51-.854.753Zm2.189-2.062a41.396 41.396 0 0 1-2.7-3.075c.86.032 1.735.048 2.625.048.914 0 1.819-.019 2.71-.057a39.469 39.469 0 0 1-2.635 3.084Zm11.637 2.538c-.267 1.37-.805 2.285-1.47 2.651-1.413.78-4.437-.233-7.696-2.905a30.3 30.3 0 0 1-1.128-.976 43.425 43.425 0 0 0 3.76-4.545 46.84 46.84 0 0 0 6.074-.892c.092.351.173.696.243 1.033.45 2.157.514 4.108.217 5.634Zm1.626-9.111a27.41 27.41 0 0 1-.753.224 41.675 41.675 0 0 0-2.272-5.41 41.489 41.489 0 0 0 2.183-5.331c.459.127.905.26 1.334.401 4.151 1.36 6.684 3.373 6.684 4.92 0 1.652-2.736 3.795-7.176 5.196Z"/></svg>