<svg xmlns="http://www.w3.org/2000/svg" width="40" height="40" fill="none"><path fill="#fff" d="m20.234 21.195-2.562 7.477h-.008l-1.984 5.71c.14.04.273.071.414.11h.023a15.04 15.04 0 0 0 3.867.508c.651.005 1.302-.042 1.946-.14a14.409 14.409 0 0 0 2.539-.555c.203-.063.406-.133.61-.203-.22-.47-.688-1.508-.712-1.555l-4.133-11.352ZM6.312 14.102C5.532 15.867 5 18.039 5 20c0 .492.023.984.07 1.469.54 5.562 4.133 10.234 9.07 12.336.204.086.415.172.626.25L7.5 14.109c-.625-.023-.742.016-1.188-.007Z"/><path fill="#fff" d="M33.61 13.703a14.695 14.695 0 0 0-1.18-2.078c-.125-.188-.266-.375-.399-.563a15.078 15.078 0 0 0-6.633-5.046A14.78 14.78 0 0 0 19.992 5 14.962 14.962 0 0 0 8.32 10.602c-.508.63-.965 1.298-1.367 2 1.11.007 2.484.007 2.64.007 1.415 0 3.595-.171 3.595-.171.734-.047.812 1.023.085 1.109 0 0-.734.086-1.546.125l4.914 14.61 2.953-8.852-2.094-5.75c-.734-.04-1.414-.125-1.414-.125-.734-.04-.64-1.157.078-1.11 0 0 2.227.172 3.555.172 1.414 0 3.593-.172 3.593-.172.727-.047.82 1.024.086 1.11 0 0-.726.086-1.539.125l4.868 14.5 1.351-4.5c.68-1.75 1.024-3.196 1.024-4.352 0-1.664-.602-2.82-1.118-3.719-.68-1.117-1.32-2.054-1.32-3.156 0-1.242.938-2.398 2.266-2.398h.172c2.046-.055 2.718 1.976 2.804 3.36v.046c.032.562.008.976.008 1.469 0 1.36-.258 2.898-1.023 4.828l-3.047 8.812-1.742 5.133c.14-.062.273-.125.414-.195 4.43-2.14 7.656-6.406 8.336-11.461.1-.672.15-1.352.148-2.031a14.93 14.93 0 0 0-1.39-6.313Z"/><path fill="#fff" d="M20 3.75a16.255 16.255 0 0 1 6.328 31.223A16.255 16.255 0 1 1 13.672 5.027 16.148 16.148 0 0 1 20 3.75Zm0-1.25C10.335 2.5 2.5 10.335 2.5 20S10.335 37.5 20 37.5 37.5 29.665 37.5 20 29.665 2.5 20 2.5Z"/></svg>