<svg xmlns="http://www.w3.org/2000/svg" width="40" height="38" fill="none"><path fill="#fff" d="M0 0v37.994h40V0H0Zm21.429 29.514c0 3.698-2.3 5.501-5.63 5.501-3.007 0-4.753-1.479-5.638-3.264l3.06-1.76c.59.995 1.039 1.836 2.327 1.836 1.072 0 1.952-.459 1.952-2.244V17.64h3.929v11.873Zm8.87 5.416c-3.49 0-5.745-1.496-6.846-3.562l3.065-1.685c.803 1.25 1.852 2.083 3.705 2.083 1.557 0 2.462-.655 2.462-1.675 0-1.224-.931-1.657-2.65-2.375l-.94-.383c-2.712-1.096-4.51-2.473-4.51-5.381 0-2.678 2.147-4.633 5.503-4.633 2.39 0 4.108.705 5.344 2.771L32.5 21.88c-.645-1.096-1.34-1.526-2.416-1.526-1.101 0-1.8.663-1.8 1.527 0 1.07.699 1.504 2.31 2.167l.939.383c3.196 1.3 4.995 2.629 4.995 5.61 0 3.215-2.657 4.89-6.229 4.89Z"/></svg>